# xmcd
#
# Track frame offsets: 
#        150
#        22895
#        36575
#        46530
#        58544
#        74016
#        88296
#        98564
#        118270
#        133431
#        145310
#        158874
#        172516
#
# Disc length: 2500 seconds
#
# Revision: 0
# Processed by: cddbd v1.5.2PL0 Copyright (c) Steve Scherf et al.
# Submitted via: ExactAudioCopy v1.0b3
#
DISCID=b409c20d
DTITLE=Tuomari Nurmio - Dumari ja Spuget Bailaa!
DYEAR=2014
DGENRE=rock
TTITLE0=Kivinen tie
TTITLE1=Usvaa putkeen
TTITLE2=Pikku julmuri
TTITLE3=Mammona
TTITLE4=Rahamies
TTITLE5=Paha tyttö
TTITLE6=Tuhma hauva
TTITLE7=Don Pate
TTITLE8=Sähkö!
TTITLE9=Hunajainen paholainen
TTITLE10=Lihava rakkaus
TTITLE11=Paavi Roskapankissa
TTITLE12=Maailman paras näyttelijä
EXTD=
EXTT0=
EXTT1=
EXTT2=
EXTT3=
EXTT4=
EXTT5=
EXTT6=
EXTT7=
EXTT8=
EXTT9=
EXTT10=
EXTT11=
EXTT12=
PLAYORDER=
